<svg id="ba3c9116-3285-44fc-8bc3-0866447e73e6" data-name="Capa 1" xmlns="http://www.w3.org/2000/svg" viewBox="0 0 499.5 233.22"><title>animatedexplanier</title><g id="15bf1d21-8ecb-4b85-bd15-5a65a8f739c9" data-name="Group 929"><g id="56d9fa15-dfff-4a34-a823-d1a4ab4d6b5e" data-name="Group 872"><g id="508c1096-74fe-42f2-a5a8-973b5e651744" data-name="Group 867"><path id="5636741f-f55e-405f-bfd2-a80ac0938686" data-name="Path 1579" d="M257.39,191.27H36.26V60.08A26.63,26.63,0,0,1,62.85,33.42H230.37A26.63,26.63,0,0,1,257,60s0,0,0,.07V191.27Z" style="fill:#fff"/><path id="5d164672-30b2-45f3-ac3f-36f38cde0d5a" data-name="Path 1580" d="M262.73,196.6H30.93V60.09a32.09,32.09,0,0,1,32-32H230.37a32.09,32.09,0,0,1,32,32V196.6ZM41.59,185.93H252.06V60.09a21.39,21.39,0,0,0-21.33-21.34H62.93A21.39,21.39,0,0,0,41.59,60.09Z"/></g><g id="ff14501f-743b-4cac-835d-c05864696b7e" data-name="Group 869"><g id="3138801a-bcb8-41af-8c44-2154c0a2567b" data-name="Group 868"><path id="928aaf7d-fe3c-43df-920e-d271f7890444" data-name="Path 1581" d="M242.82,177h-193V64.7A17.45,17.45,0,0,1,67.19,47.28H225A17.45,17.45,0,0,1,242.46,64.7V177ZM60.44,166.38H232.15V64.7a6.75,6.75,0,0,0-6.74-6.75H67.19a6.75,6.75,0,0,0-6.75,6.74h0Z"/></g></g><g id="d722384d-1a41-4521-b7ce-6dcbf05a6218" data-name="Group 870"><path id="4d2178b7-e2ea-4a76-95e1-255cd0ef7ca0" data-name="Path 1582" d="M247.44,225.75H44.8A35.66,35.66,0,0,1,9.24,190.2v-.71H283v.71a35.43,35.43,0,0,1-35.3,35.55Z" style="fill:#fff"/><path id="a0ed8682-1672-4405-b464-45fdc5d334b1" data-name="Path 1583" d="M247.44,231.09H44.8A41.12,41.12,0,0,1,3.91,190.2v-6H288.32v6A40.89,40.89,0,0,1,247.44,231.09ZM14.93,194.82a30.22,30.22,0,0,0,29.86,25.6H247.44a30.22,30.22,0,0,0,29.86-25.6Z"/></g><g id="276be2d0-d5d1-4045-ac90-17fd668271d8" data-name="Group 871"><rect id="5facf4be-629a-4450-9ac7-632c7e6e947f" data-name="Rectangle 45" x="108.43" y="202.29" width="75.37" height="10.66"/></g></g><g id="57419b8c-3052-4ac7-bed6-069b471bef09" data-name="Group 885"><g id="14c997e1-5425-4d2b-9171-ac0eeba8d7d1" data-name="Group 875"><g id="c4525420-59c4-4022-9d1e-5b066d829490" data-name="Group 873"><rect id="ffcc60fd-d57f-4580-8d31-2b2ef1b80a8b" data-name="Rectangle 46" x="151.45" y="5.33" width="139.36" height="59.73" style="fill:#fff"/></g><g id="8438b4d6-d2ba-4510-b65e-c9686dfb2519" data-name="Group 874"><path id="9dffaeee-b73d-4239-b292-dc11a9a1b2df" data-name="Path 1584" d="M296.15,70.39h-150V0h150ZM156.78,59.73h128.7V10.66H156.78Z"/></g></g><g id="be34b36b-6b60-4c98-9f12-bfba72186ba9" data-name="Group 880"><g id="1bab153f-5044-45d9-b087-3c456e9cec40" data-name="Group 877"><g id="d2eb5fce-7f25-4e8a-8007-fb95326f4839" data-name="Group 876"><rect id="e18a7de5-5840-4080-b08c-05222b88531a" data-name="Rectangle 47" x="151.45" y="5.33" width="23.11" height="23.11" style="fill:#29ffe2"/></g></g><g id="0f8074c6-11a6-4c9e-9c28-c4e5c20956cf" data-name="Group 879"><g id="5df89355-9e1e-4b3d-a624-083b50b3c3ce" data-name="Group 878"><path id="cd935633-fbe9-4e20-86e5-184556162d51" data-name="Path 1585" d="M174.56,33.77H151.45a5.47,5.47,0,0,1-5.33-5.33V5.33A5.47,5.47,0,0,1,151.45,0h23.11a5.47,5.47,0,0,1,5.33,5.33V28.44A5.47,5.47,0,0,1,174.56,33.77ZM156.78,23.11h12.44V10.66H156.78Z"/></g></g></g><g id="bd763af9-3bfc-4907-bb9b-5aba9726e28d" data-name="Group 882"><g id="8859cdc2-cf55-41f9-bbce-88b703bcd8a1" data-name="Group 881"><rect id="215ea16e-0d08-489d-ab99-c54ab2443252" data-name="Rectangle 48" x="190.56" y="20.26" width="72.53" height="10.66"/></g></g><g id="ef7f9588-3040-4a81-96df-9c81d5dc2765" data-name="Group 884"><g id="49eda32a-7c97-4dcf-8779-588ffbcbc475" data-name="Group 883"><rect id="5bf9f0c3-6199-440f-a2f3-f31b3f15a3a7" data-name="Rectangle 49" x="190.56" y="39.11" width="72.53" height="10.66"/></g></g></g><g id="930b8f94-f31b-4aa8-9cea-f4f1e557cd33" data-name="Group 900"><g id="ddea2b90-a5f7-46bb-8760-6228e250ba58" data-name="Group 888"><g id="6fd9e044-dcad-4484-9ae2-ff065273aa08" data-name="Group 886"><rect id="346dfd41-5988-485d-95d2-6463fed51143" data-name="Rectangle 50" x="5.33" y="91.37" width="139.36" height="59.73" style="fill:#fff"/></g><g id="7b875925-9c60-4678-934a-83bad1a400b5" data-name="Group 887"><path id="fb908e9e-457d-4d96-b5da-0e51884ab608" data-name="Path 1586" d="M150,156.43H0V86H150ZM10.66,145.76h128.7V96.7H10.66Z"/></g></g><g id="94eca31c-e6a0-499c-a2c3-a4a5d11c04ba" data-name="Group 893"><g id="108fdbd9-8291-4378-9375-50c21c18b5e4" data-name="Group 890"><g id="2b2a1e28-b9a8-4a98-b355-870ff0163514" data-name="Group 889"><rect id="7a70489c-05d2-40ae-9b0c-a5a71969eb19" data-name="Rectangle 51" x="5.33" y="91.37" width="23.11" height="23.11" style="fill:#29ffe2"/></g></g><g id="39408b8b-36b7-4b72-a193-c2dc72b74996" data-name="Group 892"><g id="a8777115-9fce-4b18-b444-e0fdfce29867" data-name="Group 891"><path id="8a2a981d-3819-46b0-b068-37846e8e9848" data-name="Path 1587" d="M28.44,119.81H5.33A5.47,5.47,0,0,1,0,114.48V91.37A5.47,5.47,0,0,1,5.33,86H28.44a5.47,5.47,0,0,1,5.33,5.33v23.11A5.47,5.47,0,0,1,28.44,119.81ZM10.66,109.14H23.11V96.7H10.66Z"/></g></g></g><g id="50e1ba6d-3725-4c01-8d09-5f99c3581d56" data-name="Group 896"><g id="2cc1bba3-85a9-4fd7-a5b0-7f5aebb4d73f" data-name="Group 895"><rect id="bf4b70b0-9be3-435b-8545-026b204efeae" data-name="Rectangle 52" x="44.44" y="107.37" width="72.53" height="10.66"/></g></g><g id="98461e24-41cb-44fc-8e62-ca74e218add5" data-name="Group 899"><g id="482084bf-6191-4604-a1d9-d7d5c5061f65" data-name="Group 898"><rect id="2a4927a4-6a5c-4b18-bdae-eaad8e1c1617" data-name="Rectangle 53" x="44.44" y="124.08" width="72.53" height="10.66"/></g></g></g><g id="e4165e25-49be-48c4-954c-d1b149469571" data-name="Group 928"><g id="fb19d4b3-59e3-499a-b4f8-221cd26b74b2" data-name="Group 912"><g id="0406673d-88ab-47e0-b562-698c1552dfc8" data-name="Group 911"><g id="a085a031-0f40-4156-87c8-5fea03650dc9" data-name="Group 902"><g id="79132a9b-bb06-40ee-8e10-588eeeee43c7" data-name="Group 901"><path id="933a8e31-3fc6-45f5-848a-c676e35b297f" data-name="Path 1588" d="M235.71,144.7,214,148.61l9.24-19.55Z"/></g></g><g id="28a1e811-9cfb-49b7-afe8-530217f24d8f" data-name="Group 905"><g id="3cd43e1e-46bb-42b9-a941-a03a3ad22243" data-name="Group 903"><path id="b00786e5-f78e-4f89-9cbe-d1e47c6a101f" data-name="Path 1589" d="M381.82,13.51,374,19.2l-7.46,5.69L303.61,72.17l-78.57,59,8.53,11.38,78.21-59,62.93-47.28,7.82-5.69L390,24.89Z" style="fill:#fff"/></g><g id="77dd437e-882b-4c6b-85aa-863b78bb51f3" data-name="Group 904"><path id="efd7174a-be07-4fc5-959d-e63879cacd11" data-name="Path 1590" d="M232.51,150l-14.93-19.91L382.53,6,397.47,26Zm0-17.78,2.13,2.84L382.53,23.82,380.4,21Z"/></g></g><g id="9ee2c2bd-f337-4853-b74e-3af4b539affe" data-name="Group 910"><g id="4e684652-dc42-4e88-9faa-3965f97c6222" data-name="Group 907"><g id="7a66a443-9190-4864-8dff-08eaaea5862b" data-name="Group 906"><path id="813fc876-9d51-43fe-8664-208f4ae09648" data-name="Path 1591" d="M397.82,18.84l-3.2,2.49L390,24.89l-8.53-11.38L386.09,10l3.2-2.49C394.62,3.91,402.8,15.29,397.82,18.84Z" style="fill:#29ffe2"/></g></g><g id="46cfc699-ac02-4ad6-8bcf-14364b1ce8ec" data-name="Group 909"><g id="9c5e65c6-dab8-40f3-bfed-a3b2d0019431" data-name="Group 908"><path id="031dde04-e6b3-44c1-869b-6b2a1a98660f" data-name="Path 1592" d="M388.93,32.35,374,12.44l12.09-8.89c4.62-3.56,11-1.78,15.64,3.91a12.11,12.11,0,0,1,2.84,7.11A9.21,9.21,0,0,1,401,23.11Zm.36-17.78,2.13,2.84,2.84-2.13a8.56,8.56,0,0,0-2.13-2.84Z"/></g></g></g></g></g><g id="c00f5739-656c-40b5-ad18-f7b252921467" data-name="Group 919"><g id="4347f44e-9c76-4352-9257-08dd8fea5b72" data-name="Group 915"><g id="c6d1476d-3108-4baf-a844-1443482963a8" data-name="Group 913"><path id="817fc383-4a32-4620-920a-891b39401eaf" data-name="Path 1593" d="M431.24,123,401.73,59.37a26.62,26.62,0,0,0-22-15.29L365.83,43,324.23,74.3c.35.36,1.07.71,1.42,1.07l33.42,24.17c4.27,3.2,24.18,41.6-38.4,28.8a27.08,27.08,0,0,1-14.93-8.18l-14.57-14.58a13.53,13.53,0,0,0-4.62-3.2l-17.06,12.8,15.64,27.38A36.17,36.17,0,0,0,308.94,160l91.37,19.55L416,197.31l46.22-43Z" style="fill:#fff"/></g><g id="9199dfd5-6415-4473-b741-4807d6e4308d" data-name="Group 914"><path id="1a8e3520-290c-45f6-aca4-b577bdfef37a" data-name="Path 1594" d="M415.6,199.8h0a1.85,1.85,0,0,1-1.42-.71l-15.29-17.42-90.66-19.55A37.29,37.29,0,0,1,283,143.63l-15.64-27.38c-.36-.71-.36-1.78.36-2.13l17.07-12.8a2.66,2.66,0,0,1,1.78-.36,19.92,19.92,0,0,1,5.33,3.56l14.58,14.58a27.64,27.64,0,0,0,14.22,7.47c23.46,5,38,2.84,41.6-5.69,3.55-7.82-3.2-18.84-4.62-19.91L324.23,76.44c-.35-.36-.71-.36-1.07-.71s-1.07-1.07-1.07-1.42c0-.71,0-1.07.71-1.42l41.6-31.28a1.31,1.31,0,0,1,1.07-.36l13.87,1.07A28,28,0,0,1,402.8,58.66l29.51,63.64,30.93,30.93c.36.36.36.71.36,1.42a2.7,2.7,0,0,1-.71,1.42L416,199.8Zm-144-83.55,14.58,26a35.13,35.13,0,0,0,22.75,16.71l91.37,19.55c.36,0,.71.36,1.07.71l14.22,16.71,44.08-41.24-29.51-30.22-.36-.36L400.31,60.44a25,25,0,0,0-20.62-14.22l-13.15-1.07L327.43,74.66l32.71,24.17c2.84,2.13,10.31,14.58,6,24.18-4.62,10.31-19.91,12.8-45.51,7.47-6-1.07-11.38-4.27-16-8.53L290.1,107.37a19.54,19.54,0,0,0-3.2-2.49Z" style="fill:#34485f"/></g></g><g id="aba09cc7-2df8-41b4-9d73-fcf62adb4d57" data-name="Group 918"><g id="14722497-111c-455e-b1bc-9abb2f604c9a" data-name="Group 916"><path id="b24b6cb4-8530-459e-9a06-77927553a12a" data-name="Path 1595" d="M270.19,90.66a5.93,5.93,0,0,0,6.4.36l7.82-4.27,19.2-14.22L344.85,41.6l-27.38-2.13c-7.47-.71-14.93,2.49-20.26,8.18L269.13,78.57c-1.42,1.78-2.49,4.27-2.13,6.4A6.73,6.73,0,0,0,270.19,90.66Z" style="fill:#fff"/></g><g id="c899b989-796c-4a9c-a596-a993db6f9a84" data-name="Group 917"><path id="600566ab-5c40-47e7-96eb-c822260bcdab" data-name="Path 1596" d="M273.75,97.06a14.49,14.49,0,0,1-6.4-1.78h0a14.62,14.62,0,0,1-6-9.6A13.12,13.12,0,0,1,264.86,75l28.09-30.93c6.4-6.76,15.29-10.66,24.53-10l41.6,3.2-72.17,54-7.82,4.27A9.26,9.26,0,0,1,273.75,97.06Zm-.35-10.67c.36,0,.71.36.71,0l7.47-4.27,48.71-36.62-13.15-1.07a19.73,19.73,0,0,0-16,6.4L273,81.77a2.61,2.61,0,0,0-.71,2.13,2,2,0,0,0,1.07,2.49Z"/></g></g></g><g id="5a621320-7b29-4367-b24c-6813e639a0e6" data-name="Group 922"><g id="745c9df7-c58a-4264-b9f7-482b8ec7f9db" data-name="Group 920"><path id="4224e239-a4c8-4a59-b722-33ae55d141d9" data-name="Path 1597" d="M431.24,123,401.73,59.37a26.62,26.62,0,0,0-22-15.29L365.83,43c-1.42.36-40.17,30.22-41.6,31.29a3.73,3.73,0,0,1,1.42,1.07l33.42,24.17c4.27,3.2,24.18,41.6-38.4,28.8a27.08,27.08,0,0,1-14.93-8.18l-14.57-14.58a15.69,15.69,0,0,0-18.49-2.84l-2.49,1.42a7.78,7.78,0,0,0-3.2,3.56c-.36,1.78-.36,3.2.71,4.62l17.07,30.22A36.17,36.17,0,0,0,308.59,160L400,179.53l15.64,17.78,46.57-43Z" style="fill:#fff"/></g><g id="4f4dd276-7eb1-43ae-9d14-932a958326d9" data-name="Group 921"><path id="9df024d7-efef-4f60-ba72-cd01e7c1a2bd" data-name="Path 1598" d="M415.24,205.84l-18.13-20.62L307.52,166a41,41,0,0,1-27.37-20.26l-17.07-30.57A13,13,0,0,1,262,106.3a11.85,11.85,0,0,1,5.69-6.75l2.49-1.42c8.18-4.27,18.13-2.49,24.89,3.91l14.58,14.58a25.48,25.48,0,0,0,12.09,6.75c29.15,6,35.91-.36,37.33-3.2,2.84-5.33-1.78-14.58-3.55-16.35L321.74,78.93H317.5L321,69.69c.71-.36,5-3.91,10-7.47C362.27,38.4,362.63,38,364.4,37.69l1.07-.36L380.4,38.4a31.19,31.19,0,0,1,26.31,18.13l29.15,62.92L470,153.94ZM279.79,106.65a12.55,12.55,0,0,0-5,1.07l-2.49,1.42a.35.35,0,0,0-.36.34s0,0,0,0v.71L289,140.43a29.83,29.83,0,0,0,20.62,14.93l93.15,19.91L416,190.2l38.75-36.26L427,125.85l-29.86-64.7c-3.2-6.76-10-11.73-17.42-12.09L367.6,48C363,51.2,347,63.64,338.1,70.4c-1.78,1.42-3.2,2.49-4.62,3.56l28.8,21.33c3.55,2.84,12.09,17.07,7.11,28.8-5.33,12.09-22,15.29-49.42,9.6a35,35,0,0,1-17.78-9.6L287.61,109.5A12.42,12.42,0,0,0,279.79,106.65Z"/></g></g><g id="a70dcdf2-3bb8-420e-b86d-0e4c76a67e4f" data-name="Group 927"><g id="e8c15230-238b-4af9-8008-5c176cac451b" data-name="Group 924"><g id="dbfcbd17-b2ba-4275-b855-297d53beea8e" data-name="Group 923"><rect id="8a69bee3-4842-49f6-a4a8-d191bfda8aac" data-name="Rectangle 54" x="401.61" y="165.24" width="92.43" height="32.35" transform="translate(2.88 369.8) rotate(-45)" style="fill:#29ffe2"/></g></g><g id="eeac285f-848b-4b67-b4f3-3fd94c453654" data-name="Group 926"><g id="189d92bc-09dc-4931-a05e-791d1fc1471f" data-name="Group 925"><path id="bb5ea307-4c89-49d0-b499-e6775d1b9774" data-name="Path 1599" d="M426.62,233.22,396.4,203l72.88-72.88,30.22,30.22Zm-15.29-30.57,15.29,15.29,57.59-57.59-15.29-15.29Z"/></g></g></g></g></g></svg>