<svg id="69509230-7391-4ee1-9767-47b5988cd1cb" data-name="Capa 1" xmlns="http://www.w3.org/2000/svg" viewBox="0 0 414 331.2"><title>characterdesign</title><g id="ae4e5444-a79c-4544-a920-70459d8e76e3" data-name="Group 817"><g id="c6ded107-aa05-4f91-a2c3-a2ace89c1840" data-name="Group 788"><path id="3da5322e-09a1-493b-8d0a-25deaacf55a3" data-name="Path 1529" d="M376.56,324.59H95.13A30.92,30.92,0,0,1,64.3,293.76V156.35a30.92,30.92,0,0,1,30.83-30.83H376.56A30.64,30.64,0,0,1,407.39,156q0,.19,0,.38V293.76a30.64,30.64,0,0,1-30.45,30.83Z" style="fill:#fff"/><path id="fd9e603b-3f09-4907-af54-988dee4bc2d5" data-name="Path 1530" d="M376.56,331.2H95.13A37.4,37.4,0,0,1,57.7,293.84s0,0,0-.07V156.35a37.4,37.4,0,0,1,37.36-37.44h281.5A37.4,37.4,0,0,1,414,156.28s0,0,0,.07V293.76a37.4,37.4,0,0,1-37.36,37.44ZM95.13,132.13a24.15,24.15,0,0,0-24.22,24.08s0,.09,0,.14V294.2A24.15,24.15,0,0,0,95,318.43H376.56a24.44,24.44,0,0,0,24.22-24.22V156.35a24.44,24.44,0,0,0-24.22-24.22Z"/></g><g id="1cf9ba9e-adcd-4c79-b009-fd9bd35684cb" data-name="Group 791"><g id="312ec28e-7a4c-4b5b-93c9-bd15c600f9e0" data-name="Group 789"><rect id="d64c8a01-e466-4c9f-96e0-279953eb1c8f" data-name="Rectangle 37" x="64.3" y="162.52" width="308.74" height="125.52" style="fill:#fff"/></g><g id="50a0f1c3-8417-4e60-818b-8b4131c2e20b" data-name="Group 790"><path id="fd5581de-f4f3-481d-a5a4-781b0a97aaa9" data-name="Path 1531" d="M373,294.64H64.3A6.77,6.77,0,0,1,57.7,288V162.52a6.77,6.77,0,0,1,6.61-6.61H373a6.77,6.77,0,0,1,6.61,6.61V288A6.77,6.77,0,0,1,373,294.64ZM70.91,281.43H366.43V169.12H70.91Z"/></g></g><g id="4db4bd07-4d2d-4a14-b868-132a0ead7451" data-name="Group 792"><rect id="da860de5-fa68-457b-bb8e-5fd2915ce713" data-name="Rectangle 38" x="64.3" y="163.84" width="59.46" height="122.44" style="fill:#fff"/><path id="1187e9fd-c343-4047-9026-a347e62165e3" data-name="Path 1532" d="M130.81,292.88H57.7V157.23h72.67V292.88Zm-59.9-13.21h46.25V170.44H70.91Z"/></g><g id="bdf8560e-6dfc-4ae0-bca4-273907849e5c" data-name="Group 800"><g id="3b51240f-f781-44fe-a295-ea29272214de" data-name="Group 793"><path id="8c9070e0-3366-4e3c-a006-2368561de4e7" data-name="Path 1533" d="M93.37,239.15a14.19,14.19,0,0,1-14.09-14.09A13.91,13.91,0,0,1,93,211h.36a13.91,13.91,0,0,1,14.09,13.73q0,.18,0,.36A14.19,14.19,0,0,1,93.37,239.15Zm0-19.38a5.36,5.36,0,0,0-5.28,5.28A5.09,5.09,0,0,0,93,230.34h.4a5.09,5.09,0,0,0,5.28-4.89q0-.2,0-.4a5.35,5.35,0,0,0-5.28-5.28Z"/></g><g id="e1e50c90-1694-48e2-8b6e-66a218b3cac3" data-name="Group 796"><g id="dd0abab0-7ceb-4c31-85bf-03879f6f1cb6" data-name="Group 794"><path id="cc977c14-b62b-420b-b9be-41d29a4ba81a" data-name="Path 1534" d="M103.06,202.16H83.68a4.42,4.42,0,0,1-.49-8.81h19.44a4.16,4.16,0,0,1,4.4,4.4C107,200.39,105.26,202.16,103.06,202.16Z"/></g><g id="f9891330-803f-4e65-95c1-9d9c2c9c3996" data-name="Group 795"><path id="c06e71c1-1f78-4a3e-bc0b-d6363960ce19" data-name="Path 1535" d="M103.06,188.06H83.68a4.42,4.42,0,0,1-.49-8.81h19.44a4.16,4.16,0,0,1,4.4,4.4C107,186.3,105.26,188.06,103.06,188.06Z"/></g></g><g id="87adc457-32f9-4032-9526-29ec98eb1479" data-name="Group 799"><g id="b74bb17d-23a1-4def-96e7-6eb1d8e9b4f6" data-name="Group 797"><path id="f2ed6796-9d50-4227-9766-2e3fc87bdee6" data-name="Path 1536" d="M103.06,272.62H83.68a4.4,4.4,0,1,1,0-8.81h18.94a4.16,4.16,0,0,1,4.4,4.4C107,270.86,105.26,272.62,103.06,272.62Z"/></g><g id="6b419daa-c412-4e55-ab4b-862aa583b7db" data-name="Group 798"><path id="e11e3a37-4acc-44c5-80a7-79854dda72b6" data-name="Path 1537" d="M103.06,258.53H83.68a4.4,4.4,0,1,1,0-8.81h18.94a4.16,4.16,0,0,1,4.4,4.4C107,256.77,105.26,258.53,103.06,258.53Z"/></g></g></g><g id="e25aa32f-8b05-4765-9d40-e2b3c6270c9c" data-name="Group 803"><g id="037b6fd5-1bfc-494f-a190-71c3d6acd39a" data-name="Group 801"><path id="fc3b6d38-c998-43e7-880c-7cc457923d23" data-name="Path 1538" d="M148.86,192.91h-8.81v-16.3h17.18v8.81h-8.37Z"/></g><g id="470af272-bb9f-44c2-beb2-b549277c434a" data-name="Group 802"><path id="d5ea1153-c916-4856-b12d-e59596b6c51d" data-name="Path 1539" d="M157.23,277.47H140.05v-16.3h8.81v7.49h8.37Z"/></g></g><g id="ffb316ab-8e28-46da-9f2f-258f5f936434" data-name="Group 806"><g id="fa542f4a-622d-4396-909c-9306999097f9" data-name="Group 804"><path id="b43ca0f1-a08c-47f7-aec5-05616a9f4c4c" data-name="Path 1540" d="M357.63,192.91h-8.81v-7.49h-8.37v-8.81h17.18Z"/></g><g id="26d003b8-2161-4f06-a1d6-9ae2181859e8" data-name="Group 805"><path id="3045257c-50d3-45b4-8a3f-211f838e6531" data-name="Path 1541" d="M357.63,277.47H340.45v-8.81h8.37v-7.49h8.81Z"/></g></g><g id="80c57e3d-8608-4a5c-a1bc-864409fa7aeb" data-name="Group 809"><g id="59e32b23-8908-4906-9702-f835d9323920" data-name="Group 807"><path id="dbd4ceb8-ec99-4379-9883-c40bc651ae26" data-name="Path 1542" d="M89,90.29V66.5H66.5a5.09,5.09,0,0,0-5.28,4.89q0,.2,0,.4V85a5.09,5.09,0,0,0,4.89,5.28H89Z" style="fill:#29ffe2"/></g><g id="5641a82c-1833-4cfd-8e97-a4390dcd65f7" data-name="Group 808"><path id="a04af9e0-74f6-48af-bc1c-e644b9eff5d4" data-name="Path 1543" d="M89,96.9H66.5A11.84,11.84,0,0,1,54.61,85.11s0-.07,0-.11V71.79A11.84,11.84,0,0,1,66.41,59.9H89a6.77,6.77,0,0,1,6.61,6.61V90.29a6.49,6.49,0,0,1-6.36,6.61ZM67.83,83.68H82.36V73.11H67.83Z"/></g></g><g id="f16dfbf4-cdb5-40d3-a37a-32e14edd640f" data-name="Group 812"><g id="481d0286-96e1-4992-9630-e4526eb303a5" data-name="Group 810"><path id="880a701a-4655-448a-8b19-95f4672a6f0d" data-name="Path 1544" d="M390.22,78.4,351.9,59v-.88H92A3,3,0,0,0,89,61.07s0,.1,0,.15V94.69a3,3,0,0,0,2.94,3.08H351.46v-.88Z" style="fill:#29ffe2"/></g><g id="3c7713e6-eab3-4fa6-89d6-ea8cd031cffe" data-name="Group 811"><path id="2b918ec8-83a4-44c8-ad8e-d93990783f38" data-name="Path 1545" d="M351.9,104.82H92a9.78,9.78,0,0,1-9.69-9.69V61.66A9.78,9.78,0,0,1,92,52H351.46a6.28,6.28,0,0,1,5.29,2.64l36.12,18.06a6.87,6.87,0,0,1,3.52,5.73,6.35,6.35,0,0,1-3.52,5.73l-36.11,18.5A6.31,6.31,0,0,1,351.9,104.82ZM95.57,91.61h252.8L374.8,78.39,348.38,65.18H95.57Z"/></g></g><g id="009c23ca-4eb5-4b18-badf-f4174439cca5" data-name="Group 815"><g id="06729677-32c6-430b-aebc-d2fed8b73d52" data-name="Group 814"><rect id="2059f0ed-1379-4a78-9168-7787550dcc88" data-name="Rectangle 39" x="99.1" y="60.78" width="13.21" height="35.67"/></g></g><g id="997c895e-cab4-40d7-b994-e96a0e1d077a" data-name="Group 816"><path id="11fcd4d4-2101-48b6-a061-1d91b04e5add" data-name="Path 1546" d="M59.46,239.59H0V0H13.21V226.38H59.46Z"/></g></g></svg>