<svg id="9173a67b-7915-40ec-a5a9-cfff760a48e3" data-name="Capa 1" xmlns="http://www.w3.org/2000/svg" viewBox="0 0 177.67 185"><title>Logo</title><g id="dc228393-1583-45df-a984-2beef8fe1cee" data-name="Group 17"><path id="1b03013f-9bfb-41c2-8809-30408b7eebee" data-name="Path 12" d="M43.67,80.37a5.72,5.72,0,1,0-5.72-5.72h0a5.72,5.72,0,0,0,5.72,5.72Zm0-8.25a2.56,2.56,0,1,1-2.56,2.56,2.56,2.56,0,0,1,2.56-2.56Z" style="fill:#29ffe2"/><path id="703946b8-ccee-4318-9702-7604eaa48b47" data-name="Path 13" d="M33.52,82.78a5.72,5.72,0,1,0,5.72,5.72h0a5.72,5.72,0,0,0-5.72-5.72Zm0,8.25a2.56,2.56,0,1,1,2.56-2.56A2.56,2.56,0,0,1,33.52,91Z" style="fill:#29ffe2"/><path id="60b37b02-0ea4-4919-bc5d-b76f939e09b8" data-name="Path 14" d="M20.18,102.57a5.72,5.72,0,1,0,5.72-5.72h0a5.72,5.72,0,0,0-5.72,5.72Zm8.25,0A2.56,2.56,0,1,1,25.87,100,2.56,2.56,0,0,1,28.43,102.57Z" style="fill:#29ffe2"/><path id="1b0f94ee-31f5-4fd6-8ec5-622d720049f8" data-name="Path 15" d="M15.43,118.57a4.9,4.9,0,1,0,4.9-4.9h0A4.9,4.9,0,0,0,15.43,118.57Zm4.9-2a2,2,0,1,1-2,2,2,2,0,0,1,2-2h0Z" style="fill:#29ffe2"/><path id="a8b4a440-2252-473b-abbe-63ea2b434eea" data-name="Path 16" d="M19.86,139.37a4.9,4.9,0,1,0-4.9-4.9h0A4.9,4.9,0,0,0,19.86,139.37Zm0-6.89a2,2,0,1,1-2,2,2,2,0,0,1,2-2h0Z" style="fill:#29ffe2"/><path id="060eb417-7c95-41fc-a855-bf8394846fd8" data-name="Path 17" d="M38.48,115.47a4.9,4.9,0,1,0-4.9,4.9h0A4.91,4.91,0,0,0,38.48,115.47Zm-4.9,2a2,2,0,1,1,2-2,2,2,0,0,1-2,2Z" style="fill:#29ffe2"/><path id="614f031b-93e8-4e11-a966-1c18c5eb13e3" data-name="Path 18" d="M45.44,102.35a4.9,4.9,0,1,0-4.9,4.9h0A4.91,4.91,0,0,0,45.44,102.35Zm-7.15,0a2.24,2.24,0,1,1,2.25,2.24h0a2.25,2.25,0,0,1-2.24-2.24Z" style="fill:#29ffe2"/><path id="25ce2c6d-5bcd-4af5-9fa5-976ea6ca9634" data-name="Path 19" d="M52.74,89.42a4.9,4.9,0,1,0-4.9,4.9h0A4.9,4.9,0,0,0,52.74,89.42Zm-7.18,0a2.25,2.25,0,1,1,2.25,2.24h0a2.21,2.21,0,0,1-2.24-2.18s0,0,0-.06Z" style="fill:#29ffe2"/><path id="f799a727-b0bf-43ec-a962-f3dccc7e7e60" data-name="Path 20" d="M23.81,153.44a4.08,4.08,0,1,0-4.08-4.08A4.08,4.08,0,0,0,23.81,153.44Zm0-5.79a1.71,1.71,0,1,1-1.71,1.71,1.71,1.71,0,0,1,1.71-1.71Z" style="fill:#29ffe2"/><path id="a7db8e59-6813-4c43-8e20-7943031c7023" data-name="Path 21" d="M32.63,166.06A4.08,4.08,0,1,0,28.56,162,4.08,4.08,0,0,0,32.63,166.06Zm0-5.82A1.71,1.71,0,1,1,30.93,162a1.71,1.71,0,0,1,1.71-1.71Z" style="fill:#29ffe2"/><path id="70464c92-bca2-4f8b-b2e7-8d449e06358d" data-name="Path 22" d="M31.21,133.65a4.08,4.08,0,1,0-4.08-4.08A4.08,4.08,0,0,0,31.21,133.65Zm0-5.79a1.71,1.71,0,1,1-1.71,1.71,1.71,1.71,0,0,1,1.71-1.71h0Z" style="fill:#29ffe2"/><path id="fc792e22-5c11-4a7a-89e0-1a73580c183f" data-name="Path 23" d="M42.53,175.39a3.26,3.26,0,1,0-3.26-3.26,3.26,3.26,0,0,0,3.26,3.26Zm0-4.68a1.42,1.42,0,1,1-1.42,1.42h0a1.44,1.44,0,0,1,1.42-1.42Z" style="fill:#29ffe2"/><path id="58e77e95-0dc0-4ef5-864f-56e7d54d18cb" data-name="Path 24" d="M29.25,142.54a3.26,3.26,0,1,0,3.26-3.26h0a3.25,3.25,0,0,0-3.26,3.25Zm4.68,0a1.42,1.42,0,1,1-1.42-1.42,1.42,1.42,0,0,1,1.42,1.42S33.93,142.53,33.93,142.54Z" style="fill:#29ffe2"/><path id="dbf2b888-d50b-468c-bfbd-a4b4d901cec4" data-name="Path 25" d="M113.42,69a5.72,5.72,0,1,0,5.72,5.72h0A5.72,5.72,0,0,0,113.42,69Zm0,8.28A2.56,2.56,0,1,1,116,74.68,2.56,2.56,0,0,1,113.42,77.24Z" style="fill:#29ffe2"/><path id="af6b2728-4268-4990-8f68-fff1c401138d" data-name="Path 26" d="M123.6,82.78a5.72,5.72,0,1,0,5.72,5.72h0a5.72,5.72,0,0,0-5.72-5.72Zm0,8.28a2.56,2.56,0,1,1,2.56-2.56,2.56,2.56,0,0,1-2.56,2.56Z" style="fill:#29ffe2"/><path id="9e563a44-b787-4672-a06c-9ad5553401f4" data-name="Path 27" d="M131.22,96.88a5.72,5.72,0,1,0,5.72,5.72h0a5.72,5.72,0,0,0-5.72-5.72Zm0,8.25a2.56,2.56,0,1,1,2.56-2.56A2.56,2.56,0,0,1,131.22,105.13Z" style="fill:#29ffe2"/><path id="15fa7537-00ba-4a57-9f68-8c4d2977aaa2" data-name="Path 28" d="M136.79,113.67a4.9,4.9,0,1,0,4.9,4.9h0A4.9,4.9,0,0,0,136.79,113.67Zm0,6.92a2,2,0,1,1,2-2,2,2,0,0,1-2,2Z" style="fill:#29ffe2"/><path id="f3ee78d1-7389-4f1d-94dd-f0c008b9d36f" data-name="Path 29" d="M142.16,134.47a4.9,4.9,0,1,0-4.9,4.9h0A4.9,4.9,0,0,0,142.16,134.47Zm-4.9,2a2,2,0,1,1,2-2,2,2,0,0,1-2,2h0Z" style="fill:#29ffe2"/><path id="c902a1e8-f1fd-4ba5-b22d-76859d3cc49c" data-name="Path 30" d="M123.54,120.4a4.9,4.9,0,1,0-4.9-4.9h0A4.9,4.9,0,0,0,123.54,120.4Zm0-6.92a2,2,0,1,1-2,2,2,2,0,0,1,2-2h0Z" style="fill:#29ffe2"/><path id="2236c5a5-0357-400b-8ff2-19950854ddda" data-name="Path 31" d="M121.48,102.35a4.9,4.9,0,1,0-4.9,4.9h0A4.9,4.9,0,0,0,121.48,102.35Zm-4.9,2.28a2.24,2.24,0,1,1,2.24-2.24h0A2.25,2.25,0,0,1,116.58,104.63Z" style="fill:#29ffe2"/><path id="744b0fe9-781f-417c-bfa3-0ba39b5ab439" data-name="Path 32" d="M104.38,89.45a4.9,4.9,0,1,0,4.9-4.9h0A4.9,4.9,0,0,0,104.38,89.45Zm4.9-2.28A2.24,2.24,0,1,1,107,89.42h0a2.25,2.25,0,0,1,2.24-2.24Z" style="fill:#29ffe2"/><path id="2cb35542-6bc2-4d30-a8a0-18ec8e6f63a8" data-name="Path 33" d="M133.28,153.48a4.08,4.08,0,1,0-4.08-4.08A4.08,4.08,0,0,0,133.28,153.48Zm0-5.79a1.71,1.71,0,1,1-1.71,1.71,1.71,1.71,0,0,1,1.71-1.71h0Z" style="fill:#29ffe2"/><path id="ac270df2-a435-41ab-bb94-3c16434f544e" data-name="Path 34" d="M124.49,166.06a4.08,4.08,0,1,0-4.08-4.08A4.08,4.08,0,0,0,124.49,166.06Zm0-5.79a1.71,1.71,0,1,1-1.71,1.71,1.71,1.71,0,0,1,1.71-1.71h0Z" style="fill:#29ffe2"/><path id="899ed134-7266-4e1f-be1f-534753ff2fd0" data-name="Path 35" d="M130,129.57a4.08,4.08,0,1,0-4.08,4.08A4.08,4.08,0,0,0,130,129.57Zm-4.08,1.71a1.71,1.71,0,1,1,1.71-1.71,1.71,1.71,0,0,1-1.71,1.71Z" style="fill:#29ffe2"/><path id="0ff4aee6-4ef5-48c0-acdc-4a84e1f55961" data-name="Path 36" d="M111.3,172.13a3.26,3.26,0,1,0,3.26-3.26,3.26,3.26,0,0,0-3.26,3.26Zm4.68,0a1.42,1.42,0,1,1-1.42-1.42h0a1.42,1.42,0,0,1,1.42,1.41S116,172.13,116,172.13Z" style="fill:#29ffe2"/><path id="7b95478d-878d-49f6-9c56-26e97d2fbdf6" data-name="Path 37" d="M124.58,145.82a3.26,3.26,0,1,0-3.26-3.26h0a3.25,3.25,0,0,0,3.25,3.26Zm0-4.68a1.42,1.42,0,1,1-1.42,1.42,1.46,1.46,0,0,1,1.42-1.42Z" style="fill:#29ffe2"/><path id="e8de8c70-4550-4ac5-bc39-deb2e5dcc349" data-name="Path 38" d="M140.77,62.92h.13c1,0,1.55-.66,1.55-1.71,0-1.93-2.31-2.05-2.31-3.6,0-.6.22-1,.79-1s.79.35.79,1v.22h.73v-.19c0-1-.47-1.71-1.52-1.71s-1.52.66-1.52,1.71c0,1.93,2.28,2.05,2.28,3.6,0,.6-.25,1-.79,1a1.18,1.18,0,0,1-.38-.06c-.29-.13-.41-.44-.41-.88v-.44h-.72v.38C139.35,62.22,139.82,62.89,140.77,62.92Z" style="fill:#29ffe2"/><path id="967c4080-fe6c-4897-8a3e-468e6dffe08d" data-name="Path 39" d="M144.56,62.86h.76V56.73h1.27V56H143.3v.7h1.27Z" style="fill:#29ffe2"/><path id="f0f63b79-eef1-470e-88c6-6e36c99c8c08" data-name="Path 40" d="M149.09,63c1,0,1.55-.7,1.55-1.74V56h-.73v5.22c0,.6-.25,1-.79,1s-.79-.38-.79-1V56h-.76v5.18C147.57,62.26,148,63,149.09,63Z" style="fill:#29ffe2"/><path id="07f04a28-f34e-402e-8d5b-17336e037853" data-name="Path 41" d="M155,61.18V57.74c0-1-.47-1.71-1.55-1.71h-1.61v6.83h1.61C154.52,62.86,155,62.23,155,61.18Zm-2.37,1V56.76h.82c.57,0,.82.35.82,1v3.51c0,.63-.25,1-.82,1h-.82Z" style="fill:#29ffe2"/><rect id="9fa92b86-740b-49e2-ac6a-a980cad01607" data-name="Rectangle 36" x="156.2" y="56.03" width="0.76" height="6.83" style="fill:#29ffe2"/><path id="2f3bf738-221b-4874-a613-ec5e2aaed5c2" data-name="Path 42" d="M159.74,63a1.51,1.51,0,0,0,1.58-1.71V57.7c0-1-.51-1.71-1.58-1.71s-1.55.66-1.55,1.71v3.54C158.19,62.26,158.7,63,159.74,63ZM159,57.64c0-.6.25-1,.82-1s.82.38.82,1v3.6c0,.63-.25,1-.82,1s-.82-.35-.82-1Z" style="fill:#29ffe2"/><path id="2bb4eb71-bf6d-4242-9a5f-0f78b0663ddf" data-name="Path 43" d="M163.95,63c1,0,1.55-.66,1.55-1.71,0-1.93-2.31-2.05-2.31-3.6,0-.6.22-1,.79-1s.79.35.79,1v.22h.73v-.19c0-1-.47-1.71-1.52-1.71s-1.52.66-1.52,1.71c0,1.93,2.28,2.05,2.28,3.6,0,.6-.25,1-.79,1s-.79-.35-.79-1v-.44h-.73v.38C162.43,62.26,162.9,63,163.95,63Z" style="fill:#29ffe2"/><path id="53d3c50e-2987-4fde-9380-1983cfe8b465" data-name="Path 44" d="M127.68,26.43,118.19,0,78.54,66.08,38.9,0,5.73,92.52C-20.55,171.78,52.11,185,52.11,185S-33.8,145.35,45.5,59.44l33,46.26,33-46.26C190.88,145.35,105,185,105,185s72.69-13.22,46.38-92.52l-9.3-25.93h27.41V52.8h8.19V26.43Zm49.45,25.9h-65V27h65Zm-8.19,13.72h-33V52.83h33V66.05Zm-90.4,37.28-33-90.12,33,55.87,33-55.87Z" style="fill:#29ffe2"/><path id="9669c1f6-b997-488c-916a-4c5c2109e48a" data-name="Path 45" d="M122,40.44h-.06l-2.43-11.32h-4.14V50.18h3V35.54h.06l2.91,11.64h1.27l2.91-11.64h.06V50.18h3.16V29.12h-4.27Z" style="fill:#29ffe2"/><path id="5907cc0c-14cb-4cbb-9a38-1f68616db21d" data-name="Path 46" d="M153.45,44.87V34.43c0-3.48-1.83-5.34-5.22-5.34h-4.52V50.18h4.52C151.58,50.18,153.45,48.31,153.45,44.87Zm-6.61,2.37V32.06h1.23c1.52,0,2.18.82,2.18,2.59v10c0,1.77-.7,2.59-2.18,2.59Z" style="fill:#29ffe2"/><path id="078d84e7-ebb5-4e63-a330-21a041cf4df9" data-name="Path 47" d="M161.39,45V29.12h-3.13V45c0,1.61-.63,2.31-2.09,2.31a3,3,0,0,1-1.23-.25l-.47,2.88a7.63,7.63,0,0,0,2.12.25C159.8,50.18,161.39,48.34,161.39,45Z" style="fill:#29ffe2"/><path id="6b1d03d9-149a-44b0-853e-e9c6d27d1a81" data-name="Path 48" d="M165.37,50.18l.32-.76a5.28,5.28,0,0,0,2.94.76c3.16,0,5.09-2,5.09-5.18V34.27a6.47,6.47,0,0,0-.57-2.69l1.07-2.5h-2.31l-.32.76a5.28,5.28,0,0,0-2.94-.76c-3.16,0-5.09,2-5.09,5.18V45a6.47,6.47,0,0,0,.57,2.69l-1,2.47Zm5.19-12.36V45c0,1.52-.7,2.34-1.93,2.34a1.7,1.7,0,0,1-1.68-1l3.6-8.5Zm-3.86-3.51c0-1.52.7-2.34,1.93-2.34a1.7,1.7,0,0,1,1.68,1l-3.57,8.5h0Z" style="fill:#29ffe2"/><path id="30f2a911-eb9d-47ce-bb7b-c36b77629417" data-name="Path 49" d="M133,50.18l.32-.76a5.36,5.36,0,0,0,2.85.76h.1c3.16,0,5.09-2,5.09-5.18V34.27a6.46,6.46,0,0,0-.57-2.69l1.07-2.5h-2.31l-.32.76a5.28,5.28,0,0,0-2.94-.76c-3.16,0-5.09,2-5.09,5.18V45a6.47,6.47,0,0,0,.57,2.69l-1,2.47Zm1.32-15.87c0-1.52.7-2.34,1.93-2.34a1.7,1.7,0,0,1,1.68,1l-3.57,8.5h0Zm3.83,3.51h0l0,7.15c0,1.52-.7,2.34-1.93,2.34a1.89,1.89,0,0,1-1.3-.44,1.37,1.37,0,0,1-.38-.54l.1-.25Z" style="fill:#29ffe2"/></g></svg>