<svg id="d36df4b6-5974-487d-bebe-6620885b5879" data-name="Capa 1" xmlns="http://www.w3.org/2000/svg" viewBox="0 0 349.25 336.6"><title>music</title><g id="6684c571-a8ca-4d79-b512-3dfe98876af6" data-name="Group 835"><path id="1fbc8667-f4ef-41f3-a162-42ca8748ef70" data-name="Path 1556" d="M110.3,271.3a8.4,8.4,0,0,1,5-5.6c4-1.4,7-3,9.7-2s5.7-.3,4,4-1.7,13.3-1.7,16.3,3,9.7,1.7,14-3.3,12.1-4,13.7,1,4-2,3.3-6.7-4.3-7.7-3.3-4.4,5.4-5,0-.4-2,0-9,1.3-16.4,0-18.7S110.3,271.3,110.3,271.3Z" style="fill:#29ffe2"/><path id="281f34a4-02e3-495b-8a87-81118f52a5c2" data-name="Path 1557" d="M168.7,134.3v35.4l23-17Z" style="fill:#29ffe2"/><g id="8b1c20cf-54a5-45c0-8f31-ca886fe675cf" data-name="multimedia"><g id="e0fdc884-3dca-48ab-9783-5df12e8d8234" data-name="Group 819"><g id="0552a51c-905f-44b0-8ae3-87752663361e" data-name="Group 818"><path id="57121609-833b-41dc-8e7e-af2433f78e1b" data-name="Path 1548" d="M194.79,147.56l-25.07-19.07a5.19,5.19,0,0,0-8.33,4.13v38.14a5.19,5.19,0,0,0,8.33,4.13l25.07-19.07a5.19,5.19,0,0,0,0-8.26Zm-23,12.74V143.08l11.31,8.61Z"/></g></g><g id="f486b600-b579-4572-83e3-45c26cd9e87a" data-name="Group 821"><g id="b520b243-66d7-4adb-92b1-4505aeb5bcbb" data-name="Group 820"><path id="723a17c9-f8b0-4241-ae51-43590047464c" data-name="Path 1549" d="M174.63,101.1a5.19,5.19,0,0,0,0,10.37A40.2,40.2,0,1,1,151.21,119a5.19,5.19,0,0,0-6-8.49l-.08.06a50.59,50.59,0,1,0,29.46-9.46Z"/></g></g><g id="17b463b8-1b81-4978-a103-c5e396f1c6bc" data-name="Group 823"><g id="a564a540-2458-46b6-80da-c87fbdd099df" data-name="Group 822"><path id="f443475a-e858-4a3d-9835-e9ff58805a2a" data-name="Path 1550" d="M320.68,14.16A12.53,12.53,0,1,0,333.22,26.7,12.54,12.54,0,0,0,320.68,14.16Zm0,14.7a2.16,2.16,0,1,1,2.16-2.16,2.16,2.16,0,0,1-2.16,2.16Z"/></g></g><g id="c0b29fc0-c9d9-40f5-b422-486d68eec1a9" data-name="Group 825"><g id="b72d6a8b-36cf-4dbc-938f-51e45878212e" data-name="Group 824"><path id="a87171d1-ae94-4c08-bcfd-064bec616398" data-name="Path 1551" d="M291.17,14.16A12.53,12.53,0,1,0,303.71,26.7,12.54,12.54,0,0,0,291.17,14.16Zm0,14.7a2.16,2.16,0,1,1,2.16-2.16,2.16,2.16,0,0,1-2.16,2.16Z"/></g></g><g id="a14a12c9-1379-4c41-819b-78f2515a84b0" data-name="Group 827"><g id="4941f123-7c82-435d-916c-e758d8ebcb03" data-name="Group 826"><path id="e4e4f602-8718-46d5-886b-a5e19d4e9d10" data-name="Path 1552" d="M260.9,14.16A12.53,12.53,0,1,0,273.44,26.7,12.54,12.54,0,0,0,260.9,14.16Zm0,14.7a2.16,2.16,0,1,1,2.16-2.16,2.16,2.16,0,0,1-2.16,2.16Z"/></g></g><g id="3ed051f7-0f2a-46cb-a967-83038cdff383" data-name="Group 829"><g id="20f82a3e-8cee-4aa9-8794-78ad8641b4b3" data-name="Group 828"><path id="76aa9366-8f5c-4f41-a5f3-b2cdd0355f2f" data-name="Path 1553" d="M276.75,277.15H134.42V272.6a11.56,11.56,0,0,0-11.54-11.54h-7.4a11.56,11.56,0,0,0-11.54,11.54v4.55H78.28a8.93,8.93,0,0,0-8.92,8.92V293a8.93,8.93,0,0,0,8.92,8.92h25.66v4.58A11.56,11.56,0,0,0,115.48,318h7.4a11.56,11.56,0,0,0,11.54-11.54V301.9H276.75a8.93,8.93,0,0,0,8.92-8.92v-6.92A8.93,8.93,0,0,0,276.75,277.15ZM103.94,291.53H79.74v-4h24.2Zm20.11-9.2v24.15a1.18,1.18,0,0,1-1.17,1.17h-7.39a1.18,1.18,0,0,1-1.17-1.17V272.6a1.18,1.18,0,0,1,1.17-1.17h7.4A1.18,1.18,0,0,1,124,272.6Zm151.25,9.2H134.42v-4H275.29Z"/></g></g><g id="a4f0be1e-dfc1-4ca8-8c3f-5f743d8b7802" data-name="Group 831"><g id="57add8db-cbd2-4c49-8d33-28262a13d707" data-name="Group 830"><path id="2a048f43-9b86-406c-8f48-0bf55a2907df" data-name="Path 1554" d="M344.07,0H80.8a5.19,5.19,0,0,0,0,10.37H338.88V43.71H10.37V10.38H36.54A5.19,5.19,0,1,0,36.54,0H5.19A5.19,5.19,0,0,0,0,5.19V331.41a5.19,5.19,0,0,0,5.19,5.19H344.07a5.19,5.19,0,0,0,5.19-5.19h0V5.19A5.19,5.19,0,0,0,344.07,0Zm-5.19,326.23H10.37V254.14H45.76a5.19,5.19,0,0,0,0-10.37H10.37V54.09h328.5V243.77H80.8a5.19,5.19,0,0,0,0,10.37H338.88Z"/></g></g><g id="ccb2f550-a3e3-4ef9-9306-52ad0bb36103" data-name="Group 833"><g id="4f0b6806-c9ef-4ac3-8431-6d3209b2ae43" data-name="Group 832"><path id="cf328817-528e-47a4-aa4b-3a055ceea592" data-name="Path 1555" d="M126.73,14.75H28c-6,0-10.9,5.62-10.9,12.53S22,39.82,28,39.82h98.77c6,0,10.9-5.62,10.9-12.53S132.74,14.75,126.73,14.75Zm0,13.14H28a.61.61,0,0,1,0-1.21h98.77a.61.61,0,0,1,0,1.21Z"/></g></g></g></g></svg>