<svg id="d9e37dbc-6225-4152-bdb2-344e3f5d89d7" data-name="Capa 1" xmlns="http://www.w3.org/2000/svg" viewBox="0 0 404.58 349.1"><title>VFX</title><g id="48fc066f-b817-4f72-905c-6a6a164e0cdb" data-name="Group 866"><g id="fc575468-be1d-4305-9cfc-1ebb9afd4260" data-name="Group 846"><g id="e609740d-6e93-43f4-9f72-421b7f0c24bc" data-name="Group 845"><g id="9f96c34c-ae0e-4238-9afc-b4aeed943be7" data-name="Group 836"><rect id="cabbf536-5355-4f29-adb2-2fb0344cce93" data-name="Rectangle 40" x="22.1" y="22.55" width="355.42" height="234.54" style="fill:#fff"/></g><g id="a6a5bea5-3796-434b-9589-a1e5fa82c023" data-name="Group 839"><g id="ec4ca9b2-0c10-4cf4-a040-ad458ecc42ec" data-name="Group 837"><rect id="984f3f61-adfc-422e-ad1d-864647e5e3fb" data-name="Rectangle 41" x="6.77" y="6.77" width="391.05" height="269.72" style="fill:#fff"/><path id="973d9eff-3456-408b-b0b8-dc4fa112518b" data-name="Path 1558" d="M402.32,281H2.26V2.26H402.32Zm-391-9h382V11.28h-382Z" style="fill:#34485f"/></g><g id="dc9fc0fe-f630-4092-b485-edc20b0657dd" data-name="Group 838"><rect id="8672377f-04e3-4df5-b408-146b2fa4d549" data-name="Rectangle 42" x="6.77" y="6.77" width="391.05" height="269.72" style="fill:#fff"/><path id="78501b34-acd6-4b24-9a75-06827318ea6e" data-name="Path 1559" d="M404.58,283.25H0V0H404.58Zm-391-13.53H391V13.53H13.53Z"/></g></g><g id="fdaad411-e459-4577-9ef7-fdec81d81fc4" data-name="Group 842"><g id="0c54c6b6-1c2f-4e3b-ad34-1a09b8e3bfc6" data-name="Group 840"><rect id="c488c063-f459-41c2-bfd6-e421f0cb327a" data-name="Rectangle 43" x="28.41" y="28.42" width="347.3" height="225.97" style="fill:#fff"/></g><g id="270dcd5a-3fed-423f-bf41-e4a94b228610" data-name="Group 841"><path id="5f526d38-1618-4385-9134-c62963ccafcd" data-name="Path 1560" d="M382.48,261.15H21.65V21.65H382.48ZM35.18,247.62H369V35.18H35.18V247.62Z"/></g></g><g id="eb929954-6bc8-4f27-aae1-eee0e744485b" data-name="Group 843"><path id="a2a9c47b-4149-4dd6-81df-bb430480d858" data-name="Path 1561" d="M253.93,325.65H156.51l15.79-49.16h67.2Z" style="fill:#fff"/><path id="7fe0a7ef-49f0-4f9b-ba71-34afc1000f85" data-name="Path 1562" d="M263.4,332.41H147.49l19.84-62.69h77.13ZM166,318.88h79.38l-10.82-35.63H177.26Z"/></g><g id="e8527fbf-1e85-4619-999b-c0a57d26320a" data-name="Group 844"><rect id="f84605af-1eee-4213-a66f-7e2f638e4a51" data-name="Rectangle 44" x="139.37" y="325.65" width="132.15" height="16.69" style="fill:#fff"/><path id="cf54aab4-4595-43e7-bfb4-ed237af80b7f" data-name="Path 1563" d="M278.29,349.1H132.6V318.88H278.29ZM146.14,335.57H264.76v-3.16H146.14Z"/></g></g></g><g id="062e01ab-a2e9-4a04-b4f6-69979ffa712a" data-name="Group 865"><g id="0b32509c-53c9-4c19-bf79-13d76374ba44" data-name="Group 849"><g id="5584de27-c7af-4e17-8d21-a842b5d33903" data-name="Group 847"><path id="8702fd30-592b-45d8-a7af-1de9257d0bf1" data-name="Path 1564" d="M180.42,122.68,138,147.49v32.92l48.71-30.22Z" style="fill:#fff"/></g><g id="8bc007d6-1ebd-430f-84d3-f6bccecbacc4" data-name="Group 848"><path id="eaa30852-03ec-4ff9-b4ce-3759c175778e" data-name="Path 1565" d="M131.25,192.59V143.88l53.67-32,9.93,41.5Zm13.53-41v16.69L179.06,147l-3.16-14Z"/></g></g><g id="99ae2c5d-7574-4343-8d93-e9fbf37c67f7" data-name="Group 850"><path id="d41888a8-8d89-4db4-a9ea-3bee68843baf" data-name="Path 1566" d="M128.09,153.35v33.83l11.73,7.67,16.24-4.06V137.11Z" style="fill:#fff"/><path id="30b67c92-c1f4-4ecc-b377-886ab7c2451e" data-name="Path 1567" d="M138.47,202.06l-17.14-11.28v-41.5l41-24.35v70.81Zm-3.61-18.49,5.86,4.06,8.12-1.8v-37l-14,8.12Z"/></g><g id="d4e64d03-e50f-4f43-b1e6-efb2921dcd42" data-name="Group 853"><g id="9d05c273-8abe-40a1-81e1-f53dc572c2d4" data-name="Group 851"><path id="0860d0f4-d3fa-45fb-86f1-4fc0df62902d" data-name="Path 1568" d="M224.16,122.68l42.4,24.81v32.92L217.4,150.19Z" style="fill:#fff"/></g><g id="07ecdee4-ffd2-48b9-a9d2-1947bb381d35" data-name="Group 852"><path id="e7918447-5059-465d-9f0a-61906cf3e9b7" data-name="Path 1569" d="M273.33,192.59l-63.15-39.24,9.92-41.5,53.68,32v48.71ZM225.07,147l34.28,21.2V151.55l-31.12-18.49Z"/></g></g><g id="6656553c-c3cd-4591-a7f5-c20aba9f33a3" data-name="Group 854"><path id="1e224fb3-60db-4293-9b31-89eff5199e15" data-name="Path 1570" d="M276,153.35v33.83l-11.28,7.67-16.24-4.06V137.11Z" style="fill:#fff"/><path id="4a89ef35-7719-4407-99ef-9fe6dd940dc9" data-name="Path 1571" d="M265.65,202.06l-23.9-5.86V125.39l41,24.36v41.5Zm-10.37-16.24,8.12,1.8,5.86-4.06V157l-14-8.12Z"/></g><g id="1a19040c-95df-4b78-a22a-19fe9975157a" data-name="Group 857"><g id="b3a81497-33bb-4829-be30-c616c9925118" data-name="Group 855"><path id="cef4d173-c05e-4dd7-bee0-a24c4fab69e5" data-name="Path 1572" d="M230.48,167.79c-3.16-43.3-9-70.36-24.36-104.64-.9-1.35-1.8-2.71-3.61-2.71s-2.71,1.35-3.61,2.71C184,97.87,178.16,124.94,174.55,167.79" style="fill:#fff"/></g><g id="c383bff4-abe7-4373-9dbc-d869c9a5b10c" data-name="Group 856"><path id="d396c272-8ccc-446d-9b76-ce938e51b78e" data-name="Path 1573" d="M223.71,168.24c-3.16-41-8.57-66.3-21.2-96.52-12.63,30.22-18,55.48-21.2,96.52l-13.53-.9c3.61-45.1,9.92-73.07,24.81-106.89a10.14,10.14,0,0,1,9.92-6.77,10.77,10.77,0,0,1,9.92,6.77c14.88,33.83,21.2,61.79,24.81,106.89Z"/></g></g><g id="e6597e0e-fdca-48c3-ada6-0502967a8cbc" data-name="Group 860"><g id="c6061832-9f7e-4b93-b377-ff9e123e5d64" data-name="Group 858"><ellipse id="fa68201a-1fd0-4bd7-9912-4057d509f116" data-name="Ellipse 4155" cx="202.51" cy="167.78" rx="27.51" ry="6.77" style="fill:#fff"/></g><g id="e6c70689-5570-4b7f-877e-6d03cc039139" data-name="Group 859"><path id="dd68f21d-c4e4-4ec6-a178-bda5ac49cace" data-name="Path 1574" d="M202.52,180.86c-13.08,0-34.28-1.8-34.28-13.53s21.65-13.53,34.28-13.53,34.28,1.8,34.28,13.53S215.6,180.86,202.52,180.86Z"/></g></g><g id="57e0473d-6f38-4b02-a5f7-30ff5c3ec2b1" data-name="Group 861"><path id="23193dd5-22ed-424b-9781-a9bea04d8dc2" data-name="Path 1575" d="M202.51,170.49c-10.83,0-18.49-1.35-22.1-2.71,3.61-1.35,11.28-2.71,22.1-2.71s18.49,1.35,22.1,2.71C221,169.14,213.34,170.49,202.51,170.49Z" style="fill:#b5c4c6"/></g><g id="041d772d-ecb9-4742-bd05-65a6474c580d" data-name="Group 862"><path id="78cdd910-3565-4e92-841f-67710145b259" data-name="Path 1576" d="M202.51,235c-12.18-24.81-28-68.56,0-68.56C233.18,166,212,215.59,202.51,235Z" style="fill:#29ffe2"/></g><g id="10c1a810-cbc2-4a0a-a5bc-8b65985785e8" data-name="Group 863"><path id="06d0c960-1bc4-4d5a-923f-d22390c4ff1a" data-name="Path 1577" d="M202.51,214.69c-8.57-21.65-8.57-34.28-5.86-38.34.45-.9,1.35-2.26,5.86-2.26,5,0,5.86,1.8,6.31,2.26C211.54,180.87,211.08,193,202.51,214.69Z" style="fill:#fff"/></g><g id="34cf5051-a882-44dc-a697-a50bf5542207" data-name="Group 864"><path id="89c7b2c3-5478-4341-adbd-20e58cc8a452" data-name="Path 1578" d="M202.06,103.29a9.47,9.47,0,1,1-9.47,9.47h0A9.47,9.47,0,0,1,202.06,103.29Z" style="fill:#29ffe2"/></g></g></g></svg>